<svg xmlns="http://www.w3.org/2000/svg" xmlns:xlink="http://www.w3.org/1999/xlink"><defs>
<clipPath id="clip0_1_382">
<rect width="122" height="12" fill="white"/>
</clipPath>
</defs><symbol id="group1" viewBox="0 0 72 16">
<path d="M17.6698 3.33359L13.3669 0.391617C13.0002 0.141322 12.5614 0.00683594 12.1114 0.00683594C11.6614 0.00683594 11.2226 0.141322 10.8559 0.391617L9.45509 1.3484L7.93204 2.38668L6.55307 3.33359C6.27225 3.52606 6.04327 3.78 5.88511 4.07435C5.72695 4.3687 5.64416 4.695 5.64361 5.02618V10.9879C5.64381 11.0647 5.62531 11.1406 5.58958 11.2094C5.55385 11.2782 5.50188 11.338 5.4378 11.3842L3.94434 12.3718L5.37477 13.3471L6.38327 12.6792C6.66415 12.4871 6.89319 12.2334 7.05137 11.9392C7.20954 11.6451 7.29229 11.3189 7.29272 10.9879V5.02618C7.29291 4.94711 7.31259 4.8692 7.35015 4.79882C7.38771 4.72845 7.44209 4.66759 7.50883 4.62124L11.8117 1.6805C11.8991 1.6204 12.0039 1.58807 12.1114 1.58807C12.2189 1.58807 12.3238 1.6204 12.4111 1.6805L13.5341 2.44717L14.9633 3.42248L16.7153 4.62001C16.7827 4.6658 16.8377 4.7265 16.8755 4.79698C16.9134 4.86747 16.933 4.94566 16.9327 5.02495V10.9879C16.9328 11.0669 16.9131 11.1449 16.8753 11.2151C16.8374 11.2854 16.7826 11.3459 16.7153 11.3916L12.4111 14.3212C12.3166 14.3837 12.2035 14.4152 12.0887 14.411C11.974 14.4067 11.8637 14.367 11.7744 14.2977L10.955 13.8039L9.51298 14.8027L10.8559 15.615C11.2226 15.8655 11.6614 16.0001 12.1114 16.0001C12.5614 16.0001 13.0003 15.8655 13.3669 15.615L17.6698 12.6743C17.9499 12.4826 18.1786 12.2297 18.3367 11.9365C18.4948 11.6432 18.578 11.3181 18.5792 10.9879V5.02618C18.5791 4.69492 18.4965 4.36849 18.3383 4.07407C18.1801 3.77965 17.9509 3.52577 17.6698 3.33359Z" fill="#131416"/>
<path d="M10.6446 13.6176L12.0262 12.6732C12.3062 12.4814 12.5347 12.2284 12.6928 11.9352C12.8509 11.642 12.9341 11.3169 12.9356 10.9868V5.02503C12.9354 4.94784 12.954 4.87168 12.9899 4.80264C13.0259 4.7336 13.0782 4.67362 13.1427 4.6275L14.6323 3.63984L13.2032 2.66454L12.196 3.3312C11.9152 3.52367 11.6864 3.77763 11.5284 4.07201C11.3705 4.36638 11.288 4.69268 11.2878 5.02379V10.9868C11.2879 11.0658 11.2682 11.1438 11.2303 11.214C11.1925 11.2843 11.1377 11.3448 11.0704 11.3905L6.76753 14.3201C6.68013 14.3802 6.57532 14.4125 6.46781 14.4125C6.36029 14.4125 6.25548 14.3802 6.16809 14.3201L5.04509 13.5534L3.61852 12.5818L1.8665 11.3843C1.80012 11.3392 1.7458 11.2797 1.70801 11.2106C1.67023 11.1415 1.65004 11.0648 1.64911 10.9868V5.02503C1.64867 4.94585 1.66807 4.86773 1.70568 4.79725C1.74329 4.72678 1.79801 4.66601 1.86522 4.62009L6.16809 1.67935C6.26351 1.61596 6.37778 1.58398 6.49375 1.58821C6.60972 1.59244 6.72113 1.63265 6.81126 1.70281L7.60623 2.18552L9.06625 1.19787L7.72844 0.387992C7.36181 0.137523 6.92298 0.00292969 6.47295 0.00292969C6.02293 0.00292969 5.58409 0.137523 5.21747 0.387992L0.909455 3.33244C0.628326 3.52462 0.399117 3.7785 0.240922 4.07292C0.0827272 4.36733 0.000126015 4.69377 0 5.02503V10.9868C0.000231532 11.318 0.0828782 11.6444 0.241064 11.9388C0.399251 12.2332 0.628403 12.4871 0.909455 12.6793L5.21232 15.6201C5.57894 15.8706 6.01778 16.0052 6.46781 16.0052C6.91783 16.0052 7.35667 15.8706 7.72329 15.6201L9.1936 14.6152L10.6433 13.6275L10.6446 13.6176Z" fill="#131416"/>
<path d="M28.5109 1.88037H25.3027V3.70383C25.3028 3.90959 25.2192 4.10726 25.0698 4.25482C24.9204 4.40237 24.7169 4.48816 24.5026 4.49395L23.6484 4.51494V6.94827H25.3027V11.3162C25.3027 14.0767 26.4411 14.9705 31.2007 14.673V12.1668C28.7797 12.4051 28.5932 11.7693 28.5932 10.9952V6.94457H31.2007V4.46185H28.5109V1.88037Z" fill="#131416"/>
<path d="M41.4192 0.220703C40.2614 0.220703 39.626 0.467617 39.626 1.77997C39.626 3.09231 40.2589 3.33923 41.4192 3.33923C42.5602 3.33923 43.1557 3.06021 43.1557 1.77997C43.1557 0.462679 42.5602 0.220703 41.4192 0.220703Z" fill="#131416"/>
<path d="M43.0364 4.46191H39.7871V14.5903H43.0364V4.46191Z" fill="#131416"/>
<path d="M51.3951 4.28265C49.7601 4.28265 48.7259 4.81845 48.2294 5.4345V0.549316H45.0225V14.5901C45.0585 14.5901 45.0932 14.5901 45.1292 14.5826H45.2733C45.6324 14.5824 45.9839 14.4836 46.2863 14.2979C46.5888 14.1122 46.8296 13.8473 46.9803 13.5345V13.5271C47.0064 13.474 47.0462 13.4282 47.0959 13.394C47.1456 13.3598 47.2035 13.3383 47.2642 13.3315C47.325 13.3247 47.3865 13.3328 47.4431 13.3552C47.4996 13.3775 47.5493 13.4133 47.5875 13.4592C48.2023 14.174 49.0591 14.6012 50.2759 14.7172C50.5287 14.7508 50.7836 14.7681 51.0388 14.7691C52.8795 14.7691 54.0501 14.0222 54.7512 12.9419C54.7898 12.8839 54.8284 12.8185 54.8644 12.7641L54.9364 12.6333C54.9892 12.537 55.038 12.4394 55.0844 12.3382L55.1165 12.2641C55.1705 12.1407 55.2181 12.0172 55.2632 11.8938C55.2632 11.8802 55.2722 11.8666 55.276 11.853C55.321 11.7209 55.3622 11.5864 55.3969 11.4493C55.3969 11.432 55.4059 11.4172 55.4098 11.4012C55.4381 11.2864 55.4638 11.1703 55.4857 11.0518C55.4947 11.0049 55.505 10.958 55.514 10.911C55.523 10.8641 55.5243 10.837 55.5307 10.7999C55.5998 10.3718 55.6355 9.93933 55.6375 9.50611C55.6375 6.90364 54.665 4.28265 51.3951 4.28265ZM50.2991 12.2061C48.4982 12.2061 48.2088 11.1147 48.2088 9.50611C48.2088 7.95672 48.4365 6.82463 50.2785 6.82463C52.037 6.82463 52.3264 7.93574 52.3264 9.50611C52.3264 11.0938 52.037 12.2061 50.2991 12.2061Z" fill="#131416"/>
<path d="M61.7616 4.28271C57.9128 4.28271 57.0021 5.7716 57.0021 7.93704H60.1472C60.1472 7.12222 60.519 6.52716 61.844 6.52716C63.2512 6.52716 63.7066 7.14444 63.7066 8.31358L60.9332 8.59136C57.9746 8.89012 56.5879 9.70248 56.5879 11.6506C56.5879 13.7753 58.4917 14.7691 60.9744 14.7691C62.581 14.7691 63.6449 14.321 64.3729 13.4741C64.411 13.4279 64.4608 13.3919 64.5175 13.3693C64.5742 13.3468 64.6359 13.3385 64.6969 13.3454C64.7578 13.3522 64.8159 13.3738 64.8657 13.4082C64.9155 13.4426 64.9553 13.4887 64.9814 13.542C65.1321 13.8548 65.3729 14.1197 65.6753 14.3054C65.9778 14.4911 66.3293 14.5899 66.6884 14.5901H66.9341V8.85063C66.9315 6.22839 66.2639 4.28271 61.7616 4.28271ZM61.633 12.5839C60.4534 12.5839 59.9607 12.1469 59.9607 11.5309C59.9607 11.0543 60.3543 10.6975 61.633 10.5778L63.7027 10.3395C63.6834 11.5914 63.0827 12.5839 61.633 12.5839Z" fill="#131416"/>
<path d="M71.9999 0.549316H68.7725V14.5901H71.9999V0.549316Z" fill="#131416"/>
<path d="M38.6835 4.2666C38.5793 4.2666 38.4828 4.27401 38.3825 4.27771C37.5606 4.23036 36.7458 4.4476 36.0671 4.895C35.7738 5.07638 35.5113 5.29998 35.2888 5.55796C35.2504 5.60377 35.2005 5.63946 35.1438 5.66169C35.0871 5.68392 35.0255 5.69196 34.9646 5.68504C34.9038 5.67813 34.8458 5.6565 34.7961 5.62218C34.7464 5.58786 34.7065 5.54197 34.6804 5.48882C34.5285 5.17558 34.2863 4.91068 33.9824 4.72556C33.6785 4.54044 33.3256 4.44285 32.9656 4.44438H32.7199V4.46784H32.7109V14.5913H35.9384V9.40611C35.9384 8.05549 36.3115 6.76537 38.7324 7.00364V4.30241H38.6887C38.6874 4.28018 38.6861 4.2666 38.6835 4.2666Z" fill="#131416"/>
</symbol><symbol id="group2" viewBox="0 0 122 12">
<g clip-path="url(#clip0_1_382)">
<path d="M12.3373 4.08003C12.3373 2.08976 11.007 0.281946 8.48496 0.267266C6.78796 0.267266 1.69699 0.250488 0 0.250488V11.7706H2.01884V7.92635H7.35948L10.4804 11.7706H12.8796V11.6238L9.63774 7.69566C11.6722 7.25104 12.3451 5.65715 12.3451 4.08003H12.3373ZM2.02664 5.96754V2.2869H8.49276C9.76062 2.2869 10.3263 3.20758 10.3263 4.12827C10.3263 5.04895 9.77623 5.96963 8.49276 5.96963L2.02664 5.96754Z" fill="#131416"/>
<path d="M26.3229 0.254683C24.6415 0.254683 19.5661 0.271461 17.8847 0.271461V11.7748H19.9016V8.38564H26.3229C31.566 8.38564 31.5504 0.250488 26.3229 0.250488V0.254683ZM26.3229 6.39747H19.9016V2.32045H26.3229C28.8898 2.32045 28.9054 6.39747 26.3229 6.39747Z" fill="#131416"/>
<path d="M63.1982 5.82314C64.1911 5.34497 64.589 4.4914 64.589 3.60218C64.589 1.29522 63.0149 0.267578 60.9044 0.267578H52.435V11.7709H60.9044C63.1202 11.7709 64.9089 10.9509 64.9089 8.38596C64.9089 7.66241 64.4505 6.2321 63.1982 5.82314ZM54.4207 2.23898H60.9024C62.1878 2.23898 62.5838 3.1261 62.5838 3.65251C62.5838 4.30894 62.1722 4.88568 60.9024 4.88568H54.4227L54.4207 2.23898ZM60.9024 9.75126H54.4227V6.79206H60.9044C61.7295 6.79206 62.9076 7.33315 62.9076 8.36918C62.9076 9.45345 61.7373 9.75126 60.9044 9.75126" fill="#131416"/>
<path d="M71.7554 0.267578H69.7366V11.773H80.652V9.76593H71.7554V0.267578Z" fill="#131416"/>
<path d="M87.4985 0.267578H85.4953V11.773H87.4985V0.267578Z" fill="#131416"/>
<path d="M102.625 8.59344C102.336 8.90217 102.008 9.16489 101.65 9.37361C101.247 9.60346 100.819 9.77819 100.376 9.89372C99.8728 10.0234 99.3566 10.0868 98.8391 10.0825C98.1603 10.0945 97.4845 9.98387 96.8397 9.7553C96.3067 9.56238 95.8138 9.25963 95.3885 8.86397C95.0072 8.5016 94.7049 8.05336 94.503 7.55111C94.306 7.06113 94.2044 6.53295 94.2045 5.99915C94.2034 5.45983 94.305 4.92597 94.503 4.43042C94.7049 3.92818 95.0072 3.47993 95.3885 3.11755C95.814 2.72189 96.3087 2.42169 96.8436 2.23462C97.4886 2.01084 98.1634 1.90313 98.841 1.91584C99.3344 1.91336 99.8265 1.97106 100.308 2.08781C100.735 2.19088 101.15 2.34567 101.545 2.5492C101.9 2.73335 102.229 2.97291 102.52 3.26017C102.695 3.43676 102.854 3.63133 102.994 3.8411L104.695 2.83023C104.479 2.49485 104.231 2.18547 103.953 1.90745C103.56 1.51252 103.12 1.17542 102.645 0.904974C102.116 0.606781 101.553 0.382651 100.971 0.238052C100.307 0.0751899 99.6275 -0.00433789 98.9463 0.00106343C97.9688 -0.0150005 96.9961 0.151038 96.0712 0.491819C95.2944 0.779519 94.576 1.22445 93.9548 1.80259C93.4003 2.32673 92.9561 2.97195 92.6518 3.69523C92.3475 4.4185 92.1901 5.20322 92.1901 5.99706C92.1901 6.79089 92.3475 7.57561 92.6518 8.29889C92.9561 9.02217 93.4003 9.66738 93.9548 10.1915C94.5754 10.7706 95.294 11.2156 96.0712 11.5023C96.992 11.8438 97.9607 12.0119 98.9346 11.9993C99.6373 12.0055 100.338 11.9203 101.022 11.7456C101.617 11.591 102.191 11.3534 102.728 11.0388C103.213 10.7574 103.658 10.4044 104.051 9.99019C104.336 9.68635 104.588 9.3478 104.8 8.98142L103.091 7.97475C102.958 8.20232 102.802 8.41333 102.625 8.60392" fill="#131416"/>
<path d="M43.9033 0.254884C43.6764 0.254608 43.4517 0.302412 43.2421 0.395564C43.0324 0.488716 42.8419 0.625387 42.6814 0.797765C42.5208 0.970142 42.3935 1.17484 42.3066 1.40017C42.2198 1.62549 42.1751 1.86702 42.1751 2.11093H45.3954V6.08099C45.3356 6.60855 45.2271 7.12842 45.0716 7.63294C44.8697 8.13518 44.5674 8.58343 44.1861 8.9458C43.7604 9.34191 43.2667 9.6447 42.7329 9.83713C41.6679 10.2907 40.482 10.2907 39.417 9.83713C38.8832 9.6447 38.3895 9.34191 37.9638 8.9458C37.5825 8.58343 37.2801 8.13518 37.0782 7.63294C36.9228 7.12842 36.8143 6.60855 36.7544 6.08099V0.254884H34.761V6.08099C34.7563 6.87467 34.9106 7.66013 35.2136 8.38393C35.5165 9.10772 35.9609 9.75285 36.5165 10.2754C37.1381 10.8524 37.8573 11.2953 38.6348 11.5799C40.2195 12.1331 41.9264 12.1331 43.5112 11.5799C44.2884 11.2932 45.007 10.8482 45.6276 10.2691C46.1832 9.74656 46.6275 9.10142 46.9305 8.37763C47.2334 7.65384 47.3878 6.86838 47.3831 6.0747V0.254884H43.9033Z" fill="#131416"/>
<path d="M114.502 2.16138L109.789 11.7709H107.782L113.384 0.338883V0.267578H116.361L122 11.7709H119.993L118.795 9.3381H115.204C114.971 9.3381 114.74 9.28868 114.524 9.19267C114.309 9.09665 114.113 8.95592 113.948 8.77851C113.783 8.6011 113.652 8.39047 113.563 8.15867C113.473 7.92687 113.427 7.67843 113.427 7.42753H117.855L115.267 2.16138H114.502Z" fill="#131416"/>
</g>

</symbol><symbol id="group3" viewBox="0 0 104 12">
<path d="M4.76174 11.815L0 0.185547H2.43919L5.92472 8.86138L9.43084 0.185547H11.87L7.08428 11.815H4.76174Z" fill="#131416"/>
<path d="M13.97 4.97793H21.1229C20.9157 4.19242 20.4547 3.49402 19.809 2.98748C19.1785 2.47778 18.3854 2.20234 17.5687 2.20948C16.7308 2.18877 15.9125 2.46091 15.2599 2.97737C14.6205 3.48941 14.1678 4.19149 13.97 4.97793ZM13.253 10.2589C12.6812 9.70794 12.2296 9.04845 11.9258 8.32061C11.6221 7.59277 11.4725 6.81181 11.4862 6.02536C11.473 5.23756 11.6204 4.45512 11.9197 3.72404C12.219 2.99296 12.6641 2.32802 13.229 1.76828C13.7764 1.19619 14.44 0.743218 15.1769 0.438646C15.9138 0.134074 16.7076 -0.0153212 17.507 0.000107623C19.0682 -0.0175493 20.577 0.552508 21.7233 1.59314C22.3182 2.12429 22.7933 2.77171 23.1183 3.49383C23.4432 4.21595 23.6108 4.9968 23.6101 5.78624C23.6121 6.13541 23.5891 6.48428 23.5415 6.83031H13.97C14.0056 7.24036 14.1233 7.63947 14.3164 8.00474C14.5095 8.37001 14.7742 8.69426 15.0952 8.95885C15.7648 9.51512 16.62 9.80897 17.4967 9.78399C18.0275 9.80277 18.5562 9.70865 19.0465 9.5081C19.5368 9.30754 19.9771 9.00529 20.3373 8.62206L23.1092 8.64563C22.5939 9.64653 21.8067 10.4881 20.8347 11.0773C19.8575 11.6857 18.7225 12.0049 17.5653 11.9967C16.7637 12.0119 15.9674 11.8656 15.2257 11.5666C14.4839 11.2677 13.8125 10.8226 13.253 10.2589Z" fill="#131416"/>
<path d="M25.1846 11.8148V5.75248C25.1846 3.89113 25.642 2.49118 26.5568 1.55265C27.0243 1.08178 27.5876 0.713023 28.2101 0.470439C28.8326 0.227855 29.5002 0.116909 30.1693 0.144848H30.406V2.35759H30.1693C28.3991 2.35759 27.5151 3.48922 27.5174 5.75248V11.8148H25.1846Z" fill="#131416"/>
<path d="M37.3423 2.20925C36.8323 2.19346 36.3246 2.2827 35.8519 2.47122C35.3792 2.65975 34.952 2.94337 34.5978 3.30384C33.893 4.03028 33.4999 4.99502 33.4999 5.9982C33.4999 7.00138 33.893 7.96611 34.5978 8.69255C34.9471 9.05168 35.3688 9.33539 35.836 9.52559C36.3032 9.71579 36.8057 9.80831 37.3114 9.79724C37.8119 9.80959 38.3096 9.71887 38.7722 9.53092C39.2349 9.34298 39.6523 9.06199 39.9976 8.70603C40.6901 7.97351 41.0749 7.01106 41.0749 6.01167C41.0749 5.01228 40.6901 4.04983 39.9976 3.31731C39.653 2.96024 39.2358 2.67827 38.773 2.4897C38.3102 2.30113 37.8123 2.21018 37.3114 2.22273L37.3423 2.20925ZM32.9922 1.74447C33.9928 0.759377 35.3103 0.145429 36.7204 0.00726992C38.1304 -0.130889 39.5456 0.215295 40.7247 0.98682C41.9039 1.75834 42.774 2.90745 43.1867 4.23827C43.5995 5.56909 43.5293 6.99924 42.9882 8.28496C42.4471 9.57068 41.4686 10.6324 40.2193 11.2891C38.9701 11.9458 37.5276 12.1569 36.1376 11.8863C34.7476 11.6158 33.4963 10.8804 32.5968 9.80544C31.6973 8.73051 31.2053 7.38259 31.2048 5.99145C31.1921 5.20132 31.3441 4.41699 31.6515 3.68665C31.9589 2.9563 32.4151 2.29538 32.9922 1.74447Z" fill="#131416"/>
<path d="M55.4529 11.815H52.801L49.7443 7.65228L46.6876 11.815H44.0117L48.4167 5.7696L44.3651 0.185547H46.9964L49.7203 3.90713L52.4923 0.185547H55.1236L51.072 5.7696L55.4529 11.815Z" fill="#131416"/>
<path d="M58.146 11.778V7.88802H56.0225V6.54084H58.146V6.12659L58.1941 4.70867C58.3221 3.29638 58.7727 2.18721 59.5457 1.38115C60.3635 0.556968 61.4637 0.0600978 62.6333 -0.0131836V1.40809C61.8582 1.52495 61.1455 1.89378 60.6092 2.45551C60.0513 3.08317 59.7292 3.87958 59.6967 4.71204L59.6487 6.12995V6.54421H63.3846V7.89139H59.6624V11.7813L58.146 11.778Z" fill="#131416"/>
<path d="M67.3054 0.188965H65.7891V11.8184H67.3054V0.188965Z" fill="#131416"/>
<path d="M79.22 2.75486C78.8004 2.32362 78.2939 1.98292 77.7328 1.75445C77.1717 1.52599 76.5682 1.41477 75.9609 1.42789C75.3508 1.41706 74.745 1.52924 74.1809 1.75749C73.6168 1.98573 73.1063 2.32519 72.6812 2.75486C71.8199 3.62542 71.338 4.79128 71.338 6.00493C71.338 7.21857 71.8199 8.38443 72.6812 9.255C73.1026 9.68804 73.6104 10.0312 74.173 10.263C74.7355 10.4947 75.3406 10.6102 75.9506 10.6022C76.5558 10.6135 77.1569 10.5018 77.716 10.274C78.2751 10.0462 78.7802 9.70727 79.1994 9.27857C80.0467 8.39822 80.5188 7.23295 80.5188 6.02177C80.5188 4.81059 80.0467 3.64532 79.1994 2.76496L79.22 2.75486ZM71.6143 1.74447C72.6148 0.759377 73.9324 0.145429 75.3424 0.00726992C76.7525 -0.130889 78.1677 0.215295 79.3468 0.98682C80.5259 1.75834 81.396 2.90745 81.8088 4.23827C82.2215 5.56909 82.1514 6.99924 81.6103 8.28496C81.0692 9.57068 80.0906 10.6324 78.8414 11.2891C77.5922 11.9458 76.1497 12.1569 74.7597 11.8863C73.3697 11.6158 72.1183 10.8804 71.2188 9.80544C70.3193 8.73051 69.8274 7.38259 69.8269 5.99145C69.8142 5.20132 69.9662 4.41699 70.2736 3.68665C70.5809 2.9563 71.0372 2.29538 71.6143 1.74447Z" fill="#131416"/>
<path d="M93.9275 2.75486C93.5079 2.32362 93.0015 1.98292 92.4403 1.75445C91.8792 1.52599 91.2758 1.41477 90.6684 1.42789C90.0584 1.41706 89.4526 1.52924 88.8884 1.75749C88.3243 1.98573 87.8139 2.32519 87.3887 2.75486C86.5274 3.62542 86.0456 4.79128 86.0456 6.00493C86.0456 7.21857 86.5274 8.38443 87.3887 9.255C87.8099 9.68836 88.3177 10.0317 88.8802 10.2635C89.4428 10.4953 90.0481 10.6106 90.6582 10.6022C91.2629 10.6138 91.8636 10.5022 92.4222 10.2744C92.9808 10.0466 93.4852 9.70751 93.9036 9.27857C94.7516 8.39861 95.2242 7.23319 95.2242 6.02177C95.2242 4.81035 94.7516 3.64493 93.9036 2.76496L93.9275 2.75486ZM86.3252 1.74447C87.3258 0.759377 88.6434 0.145429 90.0534 0.00726992C91.4634 -0.130889 92.8786 0.215295 94.0578 0.98682C95.2369 1.75834 96.107 2.90745 96.5198 4.23827C96.9325 5.56909 96.8624 6.99924 96.3213 8.28496C95.7802 9.57068 94.8016 10.6324 93.5524 11.2891C92.3032 11.9458 90.8606 12.1569 89.4707 11.8863C88.0807 11.6158 86.8293 10.8804 85.9298 9.80544C85.0303 8.73051 84.5384 7.38259 84.5379 5.99145C84.525 5.2013 84.6769 4.41691 84.9843 3.68653C85.2916 2.95616 85.748 2.29526 86.3252 1.74447Z" fill="#131416"/>
<path d="M98.5488 11.8147V5.78611C98.5488 3.91128 98.9868 2.50011 99.8628 1.5526C100.313 1.07816 100.862 0.70558 101.474 0.460726C102.085 0.215871 102.744 0.104618 103.403 0.134692C103.518 0.132924 103.633 0.139679 103.746 0.154899V1.57617C103.633 1.55791 103.518 1.55001 103.403 1.5526C102.94 1.53382 102.479 1.62078 102.055 1.80661C101.632 1.99244 101.259 2.2721 100.964 2.6236C100.365 3.33536 100.065 4.38953 100.065 5.78611V11.8147H98.5488Z" fill="#131416"/>
<path d="M102.45 10.5214H102.707C102.794 10.5303 102.882 10.5114 102.957 10.4675C102.979 10.4508 102.996 10.4292 103.007 10.4046C103.019 10.38 103.024 10.353 103.022 10.3261C103.023 10.2901 103.012 10.2549 102.992 10.225C102.969 10.1947 102.938 10.1714 102.902 10.1577C102.833 10.1407 102.761 10.1339 102.69 10.1374H102.45V10.5214ZM102.237 11.2455V9.96231H102.69C102.805 9.95617 102.921 9.96753 103.033 9.99599C103.099 10.0198 103.157 10.0633 103.197 10.1206C103.237 10.176 103.258 10.2417 103.259 10.3092C103.26 10.3549 103.251 10.4003 103.233 10.4425C103.216 10.4848 103.19 10.5231 103.156 10.5551C103.083 10.6256 102.985 10.6664 102.882 10.6696C102.924 10.6856 102.962 10.7096 102.995 10.7403C103.068 10.8177 103.132 10.9024 103.187 10.9929L103.348 11.2455H103.091L102.974 11.0434C102.92 10.9306 102.844 10.8288 102.751 10.7437C102.702 10.7104 102.643 10.6949 102.583 10.6999H102.45V11.2455H102.237ZM102.772 9.58847C102.598 9.59015 102.426 9.63534 102.275 9.71981C102.114 9.80302 101.981 9.93064 101.894 10.0869C101.804 10.2382 101.757 10.4102 101.757 10.5854C101.757 10.759 101.803 10.9295 101.89 11.0805C101.978 11.2358 102.109 11.3632 102.268 11.4476C102.421 11.5358 102.595 11.5823 102.772 11.5823C102.949 11.5823 103.123 11.5358 103.276 11.4476C103.435 11.3632 103.566 11.2358 103.654 11.0805C103.738 10.9286 103.783 10.7585 103.784 10.5854C103.784 10.4107 103.738 10.2389 103.65 10.0869C103.562 9.93135 103.43 9.80396 103.269 9.71981C103.124 9.63858 102.96 9.59349 102.793 9.58847H102.772ZM102.772 9.39312C102.981 9.39386 103.186 9.44598 103.369 9.54468C103.561 9.64634 103.719 9.79935 103.825 9.98588C103.93 10.1692 103.985 10.3754 103.986 10.5854C103.987 10.7935 103.931 10.9981 103.825 11.1781C103.723 11.366 103.566 11.5205 103.376 11.6227C103.191 11.7242 102.983 11.7775 102.772 11.7775C102.561 11.7775 102.353 11.7242 102.168 11.6227C101.982 11.5167 101.83 11.3615 101.729 11.1748C101.623 10.9935 101.566 10.7879 101.566 10.5786C101.566 10.3694 101.623 10.1638 101.729 9.98251C101.836 9.79597 101.994 9.64297 102.185 9.54131C102.372 9.44213 102.581 9.39113 102.793 9.39312H102.772Z" fill="#131416"/>
</symbol><symbol id="group4" viewBox="0 0 98 16">
<path fill-rule="evenodd" clip-rule="evenodd" d="M20.0034 0.0128598L0.129033 7.93268C0.0891417 7.94928 0.0558411 7.97861 0.0343076 8.01613C0.0117417 8.05003 -0.000201261 8.08992 1.04102e-05 8.13067C-0.000403888 8.17145 0.0115566 8.2114 0.0343076 8.24521C0.0571765 8.27968 0.0903296 8.30602 0.129033 8.32049L6.02977 10.4526C6.06135 10.4653 6.09577 10.4692 6.1294 10.464C6.1624 10.4588 6.19372 10.4459 6.22086 10.4264L17.4148 2.25462C17.4176 2.25341 17.4207 2.25278 17.4238 2.25278C17.4269 2.25278 17.4299 2.25341 17.4328 2.25462C17.439 2.25629 17.4447 2.25969 17.4491 2.26444C17.4502 2.26703 17.4507 2.26981 17.4507 2.27262C17.4507 2.27543 17.4502 2.27821 17.4491 2.2808C17.4514 2.28659 17.4514 2.29302 17.4491 2.2988L7.54048 10.9337C7.51763 10.9536 7.49926 10.9781 7.48659 11.0057C7.47472 11.0335 7.46915 11.0637 7.47025 11.094V15.6921C7.46907 15.7337 7.4817 15.7746 7.50618 15.8083C7.53068 15.8425 7.56479 15.8687 7.60418 15.8835C7.64361 15.8976 7.68644 15.8988 7.7266 15.887C7.76676 15.8753 7.80221 15.8512 7.82792 15.8181L10.6877 12.2869C10.7143 12.2546 10.7502 12.2312 10.7905 12.2198C10.8309 12.2067 10.8743 12.2067 10.9147 12.2198L14.56 13.5436C14.6081 13.5632 14.6621 13.5632 14.7102 13.5436C14.7575 13.5218 14.7953 13.4834 14.8164 13.4356L20.268 0.277945C20.2826 0.241598 20.286 0.201707 20.2778 0.163402C20.2709 0.124268 20.2521 0.0882405 20.2239 0.0603133C20.1966 0.0314847 20.1613 0.0115432 20.1226 0.0030805C20.0838 -0.00538222 20.0435 -0.00197483 20.0067 0.0128598" fill="#131416"/>
<path d="M26.2848 1.60889H24.4883L24.5144 12.5723H26.3109L26.2848 1.60889Z" fill="#131416"/>
<path d="M31.9403 4.68359C31.0322 4.68359 30.2009 5.01085 29.68 5.66538V4.84722H27.9863L28.0059 12.5707H29.6995L29.6865 7.45716C29.8445 7.08814 30.1086 6.77464 30.4451 6.55664C30.7817 6.33864 31.1754 6.22604 31.5761 6.23319C32.654 6.23319 33.2713 7.00062 33.2746 8.22132L33.2844 12.5707H34.978L34.9666 7.95133C34.9666 5.95501 33.7874 4.69013 31.9403 4.69504" fill="#131416"/>
<path d="M41.9744 4.81399L39.6291 10.227L37.2756 4.82708H35.3975L38.8958 12.5424H40.3902L43.864 4.80908L41.9744 4.81399Z" fill="#131416"/>
<path d="M48.0685 4.64613C47.0815 4.6625 46.1359 5.04575 45.4151 5.72146C44.6943 6.39718 44.2498 7.31714 44.168 8.30273C44.0862 9.28832 44.3728 10.2692 44.9723 11.055C45.5717 11.8407 46.4412 12.3753 47.4119 12.5548C48.3826 12.7343 49.3853 12.546 50.2252 12.0265C51.0651 11.507 51.6824 10.6933 51.9572 9.74336C52.232 8.79346 52.1446 7.77514 51.7122 6.88612C51.2797 5.99711 50.5329 5.30083 49.6168 4.93248C49.125 4.73414 48.5985 4.63676 48.0685 4.64613ZM48.0832 11.1031C46.7146 11.1031 45.7559 10.0427 45.7543 8.66822C45.7526 7.2937 46.6983 6.22518 48.0718 6.21373C49.4453 6.20227 50.3844 7.2757 50.3877 8.65022C50.3909 10.0247 49.4388 11.0916 48.0881 11.0949L48.0832 11.1031Z" fill="#131416"/>
<path d="M55.0091 4.77686H53.3154L53.3367 12.5003H55.0287L55.0091 4.77686Z" fill="#131416"/>
<path d="M55.0091 1.79883H53.3154V3.36643H55.0091V1.79883Z" fill="#131416"/>
<path d="M60.4084 6.19049C60.8533 6.18739 61.2896 6.31356 61.6644 6.55374C62.0391 6.79391 62.3364 7.13779 62.5202 7.54373L63.99 6.73866C63.6458 6.08609 63.1278 5.54185 62.4936 5.16634C61.8593 4.79084 61.1336 4.59877 60.397 4.61143C58.0942 4.61471 56.3467 6.35412 56.3467 8.64335C56.3467 10.9325 58.1187 12.6539 60.4297 12.6507C61.1661 12.6609 61.8909 12.4661 62.5233 12.0879C63.1556 11.7097 63.6708 11.163 64.0113 10.5087L62.5316 9.70369C62.3505 10.1111 62.0551 10.457 61.6813 10.6993C61.3076 10.9416 60.8716 11.0698 60.4264 11.0683C59.0578 11.0683 58.0844 10.008 58.0811 8.63353C58.0779 7.25901 59.0464 6.19049 60.4166 6.17904" fill="#131416"/>
<path d="M68.9064 4.5918C66.566 4.5918 64.8854 6.34922 64.8985 8.62044C64.8985 10.962 66.5872 12.6327 68.9227 12.6278C70.5314 12.6278 71.74 11.9241 72.4276 10.8278L71.1406 9.90496C70.7421 10.584 70.0153 11.0814 68.9423 11.0847C67.6652 11.0847 66.646 10.2551 66.566 8.98861L72.6089 8.97389C72.6236 8.72844 72.6236 8.58771 72.6236 8.41754C72.6236 5.93359 70.9201 4.59344 68.9048 4.59671L68.9064 4.5918ZM66.6362 7.74991C66.8649 6.60449 67.8611 6.03013 68.8492 6.03013C69.8373 6.03013 70.7274 6.62739 70.9152 7.73846L66.6362 7.74991Z" fill="#131416"/>
<path d="M93.9901 4.53088H93.9298C93.4033 4.52675 92.8812 4.62756 92.3938 4.82744C91.9065 5.02732 91.4637 5.32229 91.0913 5.6952C90.7188 6.0681 90.424 6.51148 90.2241 6.99957C90.0242 7.48765 89.9232 8.01068 89.9269 8.53825V8.55952C89.9236 9.08834 90.0255 9.61251 90.2267 10.1014C90.4279 10.5903 90.7244 11.0341 91.0987 11.4069C91.4731 11.7797 91.9179 12.074 92.407 12.2726C92.8962 12.4712 93.42 12.5701 93.9478 12.5636H93.9772C94.5046 12.5709 95.0281 12.4725 95.517 12.2741C96.0059 12.0757 96.4502 11.7814 96.8239 11.4084C97.1973 11.0358 97.4931 10.5924 97.6938 10.1042C97.8946 9.6159 97.9964 9.09249 97.9932 8.56443V8.53825C97.9963 8.01146 97.8948 7.48932 97.6946 7.00221C97.4944 6.51509 97.1995 6.07273 96.8271 5.70086C96.4551 5.3283 96.0129 5.03358 95.5261 4.83384C95.0394 4.63411 94.5179 4.53335 93.9919 4.53743L93.9901 4.53088ZM93.9707 10.9944C92.6004 10.9944 91.645 9.93403 91.6417 8.56116C91.6384 7.18828 92.5906 6.11648 93.9576 6.10667C95.3246 6.09685 96.2702 7.16864 96.2735 8.54316C96.2767 9.91767 95.3246 10.9846 93.9707 10.9878V10.9944Z" fill="#131416"/>
<path d="M86.9951 4.70312V5.41328C86.4545 4.85857 85.6526 4.55258 84.7299 4.55421C82.4989 4.55421 80.8853 6.27563 80.869 8.44212C80.8583 8.9547 80.9512 9.46415 81.142 9.93987C81.3327 10.4155 81.6175 10.8477 81.9792 11.2104C82.3409 11.5731 82.772 11.8588 83.2466 12.0503C83.7213 12.2419 84.2297 12.3353 84.7413 12.3251C85.6673 12.3251 86.466 11.9978 87.0033 11.4235V12.3382C87.0033 13.5409 86.35 14.1839 85.4648 14.3803C83.26 14.7763 81.8897 14.1103 81.8897 14.1103L81.3491 15.4979C82.1364 15.9888 84.578 16.1295 85.7114 15.8792C87.3446 15.5912 88.7034 14.521 88.6985 12.3529L88.6838 4.70148L86.9951 4.70312ZM87.0065 9.67755C86.788 10.0234 86.4825 10.3057 86.1208 10.4961C85.7591 10.6865 85.3538 10.7783 84.9455 10.7624C83.6079 10.7624 82.6345 9.76428 82.6181 8.43721C82.6098 8.1286 82.6654 7.8216 82.7815 7.5356C82.8944 7.24897 83.0644 6.9884 83.2812 6.7698C83.498 6.55117 83.7569 6.37897 84.0421 6.26364C84.3274 6.14832 84.633 6.09227 84.9406 6.0989C85.3466 6.08275 85.75 6.17185 86.1116 6.35761C86.4733 6.54336 86.781 6.81948 87.0049 7.15924L87.0065 9.67755Z" fill="#131416"/>
<path d="M75.7724 10.9947L78.0817 7.85297C78.5472 7.24262 79.2903 6.21665 79.4291 5.99247C80.0726 4.92722 80.151 3.80798 79.5925 2.69037C79.1368 1.78057 78.3316 1.33712 77.3403 1.21767C75.9504 1.04095 74.505 1.68566 73.8518 3.00454C73.6998 3.29164 73.6003 3.60362 73.5578 3.92579L75.0391 4.25306C75.062 4.18924 75.0832 4.13688 75.0979 4.08942C75.1683 3.81981 75.2982 3.56946 75.4779 3.35679C75.6577 3.14411 75.8828 2.97454 76.1366 2.86054C76.6772 2.61346 77.453 2.71 77.8711 3.07162C78.5717 3.68197 78.5619 4.70795 78.054 5.36248C77.9691 5.47375 73.5855 11.0699 73.5855 11.0699C73.5443 11.1188 73.5223 11.1811 73.5235 11.245V12.4837L80.0285 12.4674V10.9947H75.7724Z" fill="#131416"/>
</symbol><symbol id="in" viewBox="0 0 13 12">
<path d="M2.67576 1.3349C2.67558 1.68851 2.53446 2.02755 2.28343 2.27746C2.03241 2.52737 1.69204 2.66767 1.33721 2.6675C0.98238 2.66732 0.64216 2.52668 0.39138 2.27652C0.14061 2.02636 -0.000179828 1.68717 1.72385e-07 1.33357C0.000180172 0.979967 0.1413 0.640917 0.39233 0.391007C0.64336 0.141097 0.98372 0.000796735 1.33855 0.000976735C1.69338 0.00114674 2.0336 0.141787 2.28438 0.391947C2.53515 0.642107 2.67594 0.981297 2.67576 1.3349ZM2.7159 3.65477H0.0401403V12.001H2.7159V3.65477ZM6.9436 3.65477H4.2812V12.001H6.9168V7.6212C6.9168 5.1814 10.1077 4.9547 10.1077 7.6212V12.001H12.75V6.7146C12.75 2.6015 8.0273 2.75482 6.9168 4.7747L6.9436 3.65477Z" fill="#BDB8AD"/>
</symbol><symbol id="instagram" viewBox="0 0 16 16">
<path d="M8 5.75098C7.4033 5.75098 6.831 5.98803 6.409 6.41C5.98705 6.8319 5.75 7.4042 5.75 8.001C5.75 8.5977 5.98705 9.17 6.409 9.592C6.831 10.0139 7.4033 10.251 8 10.251C8.5967 10.251 9.169 10.0139 9.591 9.592C10.0129 9.17 10.25 8.5977 10.25 8.001C10.25 7.4042 10.0129 6.8319 9.591 6.41C9.169 5.98803 8.5967 5.75098 8 5.75098ZM8 4.25098C8.9946 4.25098 9.9484 4.64606 10.6517 5.34933C11.3549 6.0526 11.75 7.0064 11.75 8.001C11.75 8.9955 11.3549 9.9494 10.6517 10.6526C9.9484 11.3559 8.9946 11.751 8 11.751C7.0054 11.751 6.0516 11.3559 5.34835 10.6526C4.64509 9.9494 4.25 8.9955 4.25 8.001C4.25 7.0064 4.64509 6.0526 5.34835 5.34933C6.0516 4.64606 7.0054 4.25098 8 4.25098ZM12.875 4.06348C12.875 4.31212 12.7762 4.55057 12.6004 4.72639C12.4246 4.9022 12.1861 5.00098 11.9375 5.00098C11.6889 5.00098 11.4504 4.9022 11.2746 4.72639C11.0988 4.55057 11 4.31212 11 4.06348C11 3.81484 11.0988 3.57638 11.2746 3.40056C11.4504 3.22475 11.6889 3.12598 11.9375 3.12598C12.1861 3.12598 12.4246 3.22475 12.6004 3.40056C12.7762 3.57638 12.875 3.81484 12.875 4.06348ZM8 2.00098C6.1445 2.00098 5.8415 2.00623 4.97825 2.04448C4.39025 2.07223 3.99575 2.15098 3.62975 2.29348C3.30425 2.41948 3.0695 2.57023 2.81975 2.82073C2.58501 3.04753 2.40451 3.32441 2.29175 3.63073C2.14925 3.99823 2.0705 4.39198 2.0435 4.97923C2.0045 5.80723 2 6.0967 2 8.001C2 9.8565 2.00525 10.1595 2.0435 11.0227C2.07125 11.61 2.15 12.0052 2.29175 12.3705C2.41925 12.6967 2.56925 12.9315 2.81825 13.1805C3.071 13.4325 3.30575 13.5832 3.62825 13.7077C3.99875 13.851 4.39325 13.9305 4.97825 13.9575C5.80625 13.9965 6.0957 14.001 8 14.001C9.8555 14.001 10.1585 13.9957 11.0217 13.9575C11.6082 13.9297 12.0035 13.851 12.3695 13.7092C12.6943 13.5825 12.9305 13.4317 13.1795 13.1827C13.4323 12.93 13.583 12.6952 13.7075 12.3727C13.85 12.003 13.9295 11.6077 13.9565 11.0227C13.9955 10.1947 14 9.9052 14 8.001C14 6.1455 13.9947 5.84248 13.9565 4.97923C13.9287 4.39273 13.85 3.99673 13.7075 3.63073C13.5945 3.32473 13.4143 3.04795 13.1802 2.82073C12.9535 2.58586 12.6766 2.40535 12.3702 2.29273C12.0027 2.15023 11.6082 2.07148 11.0217 2.04448C10.1937 2.00548 9.9043 2.00098 8 2.00098ZM8 0.500977C10.0378 0.500977 10.292 0.508477 11.0915 0.545977C11.8902 0.583477 12.434 0.708727 12.9125 0.894727C13.4075 1.08523 13.8245 1.34323 14.2415 1.75948C14.6229 2.1344 14.918 2.58792 15.1063 3.08848C15.2915 3.56623 15.4175 4.11073 15.455 4.90948C15.4903 5.70898 15.5 5.96323 15.5 8.001C15.5 10.0387 15.4925 10.293 15.455 11.0925C15.4175 11.8912 15.2915 12.435 15.1063 12.9135C14.9185 13.4143 14.6233 13.8679 14.2415 14.2425C13.8665 14.6237 13.413 14.9188 12.9125 15.1072C12.4347 15.2925 11.8902 15.4185 11.0915 15.456C10.292 15.4912 10.0378 15.501 8 15.501C5.96225 15.501 5.708 15.4935 4.9085 15.456C4.10975 15.4185 3.566 15.2925 3.0875 15.1072C2.58674 14.9193 2.13315 14.6242 1.7585 14.2425C1.37705 13.8676 1.08195 13.4141 0.89375 12.9135C0.70775 12.4357 0.5825 11.8912 0.545 11.0925C0.50975 10.293 0.5 10.0387 0.5 8.001C0.5 5.96323 0.5075 5.70898 0.545 4.90948C0.5825 4.10998 0.70775 3.56698 0.89375 3.08848C1.08143 2.58761 1.3766 2.13397 1.7585 1.75948C2.13325 1.3779 2.58682 1.08277 3.0875 0.894727C3.566 0.708727 4.109 0.583477 4.9085 0.545977C5.708 0.510727 5.96225 0.500977 8 0.500977Z" fill="#BDB8AD"/>
</symbol><symbol id="logo" viewBox="0 0 40 40">
<path fill-rule="evenodd" clip-rule="evenodd" d="M21.4286 0H18.5714V12.6506L13.8324 0.921164L11.1833 1.99147L16.0451 14.0248L6.86802 4.8477L4.84772 6.86802L13.6435 15.6638L2.24482 10.6836L1.10092 13.3018L13.1621 18.5714H0V21.4286H13.1621L1.10092 26.6982L2.24482 29.3164L13.6435 24.3362L4.84772 33.132L6.86802 35.1522L16.0451 25.9752L11.1833 38.0086L13.8324 39.0788L18.5714 27.3494V40H21.4286V27.3494L26.1676 39.0788L28.8166 38.0086L23.955 25.9752L33.132 35.1522L35.1522 33.132L26.3564 24.3362L37.7552 29.3164L38.899 26.6982L26.838 21.4286H40V18.5714H26.8378L38.899 13.3018L37.7552 10.6836L26.3564 15.6638L35.1522 6.868L33.132 4.8477L23.955 14.0248L28.8166 1.99147L26.1676 0.921164L21.4286 12.6506V0Z" fill="#E94D35"/>
</symbol><symbol id="logo1" viewBox="0 0 20 20">
<path d="M10 0L11.3777 6.67403L17.0711 2.92893L13.326 8.62234L20 10L13.326 11.3777L17.0711 17.0711L11.3777 13.326L10 20L8.62234 13.326L2.92893 17.0711L6.67403 11.3777L0 10L6.67403 8.62234L2.92893 2.92893L8.62234 6.67403L10 0Z" fill="#E94D35"/>
</symbol><symbol id="logoArt" viewBox="0 0 100 240">
<path fill-rule="evenodd" clip-rule="evenodd" d="M128.572 0H111.429V75.9037L82.9945 5.52698L67.0999 11.9488L96.2706 84.1487L41.2081 29.0862L29.0863 41.2081L81.8612 93.9829L13.4689 64.1017L6.60551 79.8107L78.9726 111.429H0V128.572H78.9725L6.60553 160.189L13.4689 175.898L81.8611 146.017L29.0863 198.792L41.2081 210.913L96.2706 155.851L67.0999 228.052L82.9945 234.473L111.429 164.096V240H128.572V164.096L157.006 234.473L172.9 228.052L143.73 155.851L198.792 210.913L210.913 198.792L158.138 146.017L226.531 175.898L233.394 160.189L161.028 128.572H240V111.429H161.027L233.394 79.8107L226.531 64.1017L158.138 93.9829L210.913 41.208L198.792 29.0862L143.73 84.1486L172.9 11.9488L157.006 5.52698L128.572 75.9037V0Z" fill="#E94D35"/>
</symbol><symbol id="logoftr" viewBox="0 0 32 32">
<path fill-rule="evenodd" clip-rule="evenodd" d="M17.1429 0H14.8571V10.1205L11.0659 0.736931L8.94666 1.59318L12.8361 11.2198L5.49442 3.87816L3.87818 5.49442L10.9148 12.5311L1.79586 8.5469L0.880734 10.6414L10.5297 14.8571H0V17.1429H10.5297L0.880738 21.3586L1.79586 23.4531L10.9148 19.469L3.87818 26.5056L5.49442 28.1218L12.8361 20.7802L8.94666 30.4069L11.0659 31.263L14.8571 21.8795V32H17.1429V21.8795L20.9341 31.263L23.0533 30.4069L19.164 20.7802L26.5056 28.1218L28.1218 26.5056L21.0851 19.469L30.2042 23.4531L31.1192 21.3586L21.4704 17.1429H32V14.8571H21.4702L31.1192 10.6414L30.2042 8.5469L21.0851 12.5311L28.1218 5.4944L26.5056 3.87816L19.164 11.2198L23.0533 1.59318L20.9341 0.736931L17.1429 10.1205V0Z" fill="white"/>
</symbol><symbol id="logotw" viewBox="0 0 16 14">
<path d="M15.6215 2.24316C15.0489 2.49643 14.4417 2.66277 13.82 2.73666C14.4753 2.34474 14.9658 1.72792 15.2 1.00116C14.585 1.36716 13.9108 1.62366 13.208 1.76241C12.736 1.25735 12.1103 0.922383 11.4282 0.809603C10.7462 0.696823 10.046 0.812533 9.43647 1.13875C8.82697 1.46497 8.34227 1.98342 8.05777 2.61351C7.77337 3.24359 7.70507 3.95 7.86347 4.62291C6.61627 4.5604 5.39623 4.2363 4.28244 3.67166C3.16866 3.10702 2.18607 2.31445 1.39848 1.34541C1.1197 1.82425 0.973199 2.36858 0.973979 2.92266C0.973979 4.01016 1.52748 4.97091 2.36898 5.53344C1.87099 5.51774 1.38395 5.38324 0.948479 5.14114V5.18014C0.948629 5.90444 1.19926 6.60634 1.65786 7.16694C2.11647 7.72754 2.75484 8.11224 3.46473 8.25594C3.00244 8.38114 2.51771 8.39964 2.04723 8.30994C2.24738 8.93334 2.63748 9.47854 3.16292 9.86924C3.68836 10.2599 4.32283 10.4765 4.97748 10.4886C4.32684 10.9996 3.58186 11.3774 2.78514 11.6003C1.98842 11.8231 1.15557 11.8868 0.334229 11.7876C1.768 12.7097 3.43705 13.1992 5.14173 13.1976C10.9115 13.1976 14.0668 8.41794 14.0668 4.27266C14.0668 4.13766 14.063 4.00116 14.057 3.86766C14.6712 3.42379 15.2012 2.87393 15.6223 2.24391L15.6215 2.24316Z" fill="#BDB8AD"/>
</symbol><symbol id="twitter" viewBox="0 0 16 14">
<path d="M15.6215 2.24316C15.0489 2.49643 14.4417 2.66277 13.82 2.73666C14.4753 2.34474 14.9658 1.72792 15.2 1.00116C14.585 1.36716 13.9108 1.62366 13.208 1.76241C12.736 1.25735 12.1103 0.922383 11.4282 0.809603C10.7462 0.696823 10.046 0.812533 9.43647 1.13875C8.82697 1.46497 8.34227 1.98342 8.05777 2.61351C7.77337 3.24359 7.70507 3.95 7.86347 4.62291C6.61627 4.5604 5.39623 4.2363 4.28244 3.67166C3.16866 3.10702 2.18607 2.31445 1.39848 1.34541C1.1197 1.82425 0.973199 2.36858 0.973979 2.92266C0.973979 4.01016 1.52748 4.97091 2.36898 5.53344C1.87099 5.51774 1.38395 5.38324 0.948479 5.14114V5.18014C0.948629 5.90444 1.19926 6.60634 1.65786 7.16694C2.11647 7.72754 2.75484 8.11224 3.46473 8.25594C3.00244 8.38114 2.51771 8.39964 2.04723 8.30994C2.24738 8.93334 2.63748 9.47854 3.16292 9.86924C3.68836 10.2599 4.32283 10.4765 4.97748 10.4886C4.32684 10.9996 3.58186 11.3774 2.78514 11.6003C1.98842 11.8231 1.15557 11.8868 0.334229 11.7876C1.768 12.7097 3.43705 13.1992 5.14173 13.1976C10.9115 13.1976 14.0668 8.41794 14.0668 4.27266C14.0668 4.13766 14.063 4.00116 14.057 3.86766C14.6712 3.42379 15.2012 2.87393 15.6223 2.24391L15.6215 2.24316Z" fill="#BDB8AD"/>
</symbol></svg>